<?xml version="1.0" encoding="UTF-8"?>
<svg xmlns="http://www.w3.org/2000/svg" xmlns:xlink="http://www.w3.org/1999/xlink" viewBox="0 0 491.89 148.25">
  <defs>
    <style>
      .cls-1 {
        fill: url(#Degradado_sin_nombre_95);
      }

      .cls-1, .cls-2, .cls-3, .cls-4, .cls-5, .cls-6, .cls-7, .cls-8, .cls-9, .cls-10, .cls-11 {
        stroke-width: 0px;
      }

      .cls-1, .cls-2, .cls-4, .cls-6, .cls-10, .cls-11 {
        fill-rule: evenodd;
      }

      .cls-2 {
        fill: url(#Degradado_sin_nombre_235);
      }

      .cls-12 {
        isolation: isolate;
      }

      .cls-3 {
        fill: url(#Degradado_sin_nombre_59);
      }

      .cls-4 {
        fill: url(#linear-gradient);
      }

      .cls-5 {
        fill: url(#linear-gradient-2);
      }

      .cls-6 {
        fill: url(#Degradado_sin_nombre_42);
      }

      .cls-13 {
        fill: #0e1230;
        font-family: Helvetica-Condensed-Bold, Helvetica;
        font-size: 96px;
        font-weight: 700;
      }

      .cls-7 {
        fill: url(#Degradado_sin_nombre_56);
      }

      .cls-8 {
        fill: url(#linear-gradient-3);
      }

      .cls-9 {
        fill: url(#linear-gradient-5);
        mix-blend-mode: screen;
        opacity: .39;
      }

      .cls-10 {
        fill: #fff;
        opacity: .16;
      }

      .cls-11 {
        fill: url(#linear-gradient-4);
      }
    </style>
    <linearGradient id="linear-gradient" x1="100.13" y1="47.22" x2="166.67" y2="47.22" gradientUnits="userSpaceOnUse">
      <stop offset="0" stop-color="#a4e445"/>
      <stop offset="1" stop-color="#0b8da7"/>
    </linearGradient>
    <linearGradient id="linear-gradient-2" x1=".01" y1="97.85" x2="67.27" y2="97.85" gradientUnits="userSpaceOnUse">
      <stop offset=".09" stop-color="#703de0"/>
      <stop offset=".94" stop-color="#11e6f8"/>
    </linearGradient>
    <linearGradient id="linear-gradient-3" x1="66.17" y1="91.18" x2="166.67" y2="91.18" xlink:href="#linear-gradient-2"/>
    <linearGradient id="Degradado_sin_nombre_95" data-name="Degradado sin nombre 95" x1="0" y1="46.92" x2="120.97" y2="46.92" gradientUnits="userSpaceOnUse">
      <stop offset="0" stop-color="#ff2f60"/>
      <stop offset=".87" stop-color="#ffaf0e"/>
    </linearGradient>
    <linearGradient id="Degradado_sin_nombre_42" data-name="Degradado sin nombre 42" x1="100.13" y1="23.71" x2="125.71" y2="23.71" gradientUnits="userSpaceOnUse">
      <stop offset="0" stop-color="#64d445"/>
      <stop offset=".86" stop-color="#ede494"/>
      <stop offset=".99" stop-color="#edff29"/>
    </linearGradient>
    <linearGradient id="linear-gradient-4" x1="47.52" y1="37.72" x2="124.94" y2="171.81" xlink:href="#linear-gradient-2"/>
    <linearGradient id="Degradado_sin_nombre_235" data-name="Degradado sin nombre 235" x1="0" y1="13.93" x2="69.88" y2="13.93" gradientUnits="userSpaceOnUse">
      <stop offset="0" stop-color="#ffffb2"/>
      <stop offset=".87" stop-color="#ff7e00"/>
    </linearGradient>
    <linearGradient id="Degradado_sin_nombre_56" data-name="Degradado sin nombre 56" x1="45.79" y1="-3.16" x2="26.05" y2="31.02" gradientUnits="userSpaceOnUse">
      <stop offset="0" stop-color="#ffff60"/>
      <stop offset=".58" stop-color="#ffe40e"/>
    </linearGradient>
    <linearGradient id="linear-gradient-5" x1="55.67" y1="-2.67" x2="160.5" y2="104.38" gradientUnits="userSpaceOnUse">
      <stop offset="0" stop-color="#fff"/>
      <stop offset="0" stop-color="#f6f6f6"/>
      <stop offset=".05" stop-color="#c8c8c8"/>
      <stop offset=".09" stop-color="#9d9d9d"/>
      <stop offset=".14" stop-color="#777"/>
      <stop offset=".2" stop-color="#565656"/>
      <stop offset=".26" stop-color="#3b3b3b"/>
      <stop offset=".32" stop-color="#252525"/>
      <stop offset=".4" stop-color="#141414"/>
      <stop offset=".5" stop-color="#080808"/>
      <stop offset=".63" stop-color="#010101"/>
      <stop offset="1" stop-color="#000"/>
    </linearGradient>
    <linearGradient id="Degradado_sin_nombre_59" data-name="Degradado sin nombre 59" x1="-7.47" y1="94.33" x2="41.76" y2="136.82" gradientUnits="userSpaceOnUse">
      <stop offset=".09" stop-color="#703de0"/>
      <stop offset=".97" stop-color="#11e6f8"/>
    </linearGradient>
  </defs>
  <g class="cls-12">
    <g id="Layer_2" data-name="Layer 2">
      <g id="OBJECTS">
        <g>
          <g>
            <path class="cls-4" d="M163.85.01h-38.14s0,0,0,0h-4.74c-12.73,10.55-20.84,26.47-20.84,44.3,0,1.04.03,2.07.08,3.09-.05,1.07-.08,2.14-.08,3.22,0,1.53.06,3.04.16,4.54.12,1.68.31,3.33.56,4.96.22,1.49.5,2.96.83,4.41,2.53,11.19,8.04,21.25,15.66,29.3.13.08.26.15.39.22,1.2.66,1.69.49,1.61-.92-.03-.49,0-.99,0-1.48,0-19.93,0-39.87,0-59.8,0-4.47-.51-3.99,3.91-4,13.64-.01,27.28,0,40.92,0,2.4,0,2.49-.08,2.49-2.5,0-7.53,0-15.06,0-22.59,0-2.73-.01-2.74-2.81-2.74ZM111.86,14.05s-.02.02-.02.03c0-.01.02-.02.02-.03ZM105.91,24.27c-.19.4-.37.81-.54,1.21.18-.41.36-.81.54-1.21ZM100.26,46.53c0,.07,0,.14-.01.21,0-.07,0-.14.01-.21ZM100.32,45.71c0,.06,0,.11-.01.17,0-.06,0-.11.01-.17ZM101.87,35.89c.49-2.05,1.08-4.07,1.78-6.04.02-.07.05-.13.07-.2-.02.07-.05.13-.07.2-.69,1.97-1.28,3.99-1.78,6.04ZM106.84,22.33c1.23-2.43,2.61-4.77,4.13-7.01.22-.31.43-.63.65-.94-.22.31-.44.63-.65.94-1.52,2.24-2.91,4.58-4.14,7.01ZM116.96,7.82c.59-.63,1.19-1.25,1.8-1.86-.61.61-1.21,1.23-1.8,1.86ZM121.78,3.15s-.08.07-.12.1c-.52.45-1.03.91-1.53,1.38.5-.47,1.01-.93,1.53-1.39.04-.03.08-.07.12-.1,1.06-.92,2.15-1.8,3.27-2.65.13-.1.27-.2.4-.3-.13.1-.27.2-.4.3-1.11.84-2.21,1.73-3.27,2.65Z"/>
            <path class="cls-5" d="M67.27,148.22c-12.97.01-25.95.01-38.92.01H2.47c-2.38,0-2.46-.08-2.46-2.53V50.14c0-2.51.14-2.66,2.57-2.66h7.79c6.76,0,13.51-.01,20.26-.01-.56.72-1.11,1.45-1.65,2.19-.09.12-.17.24-.25.36-.26.36-.51.72-.76,1.08-1.75,2.57-3.31,5.27-4.67,8.09-.42.89-.83,1.79-1.21,2.7-.25.58-.49,1.17-.72,1.76-.25.65-.5,1.32-.73,1.98-1.19,3.4-2.1,6.93-2.69,10.57-.19,1.21-.36,2.41-.48,3.64-.23,2.16-.34,4.35-.34,6.57,0,.77.01,1.53.04,2.28.02.51.04,1.01.07,1.51.01.25.02.5.04.75.02.19.03.38.05.57-.09.91-.16,1.83-.2,2.75,1.47,27.89,22.82,50.51,50.14,53.95Z"/>
            <path class="cls-8" d="M166.66,50.01c.01,24.12.01,48.26,0,72.38-10.44,7.81-23.38,12.45-37.41,12.5h-.44c-2.67-.01-5.28-.18-7.85-.52-.34-.04-.69-.09-1.03-.14-.71-.1-1.41-.21-2.1-.34-.47-.08-.94-.17-1.41-.27-.48-.1-.96-.2-1.43-.31-.45-.1-.9-.21-1.35-.32-1.38-.35-2.74-.74-4.08-1.18-.54-.17-1.07-.35-1.59-.54-3.31-1.17-6.49-2.62-9.51-4.31-15.36-8.56-26.76-23.39-30.74-41.02-.33-1.46-.61-2.93-.83-4.42-.25-1.63-.43-3.28-.56-4.96-.1-1.5-.16-3.01-.16-4.54,0-2.22.12-4.41.35-6.57.12-1.22.28-2.43.48-3.63.59-3.64,1.5-7.17,2.69-10.57.23-.67.48-1.33.73-1.98.23-.59.47-1.18.72-1.76,1.37.1,1.51.58,1.42,2.62-.48,10.77,1.5,21.02,6.54,30.59,8.04,15.22,20.11,26.21,35.67,33.43,6.94,3.22,14.2,5.29,21.85,5.95,2.29.19,2.3.24,2.3-2.23V51.02c0-3.54,0-3.55,3.55-3.55,7.22,0,14.44,0,21.67.01,2.36,0,2.52.16,2.52,2.53Z"/>
            <path class="cls-1" d="M101.68,64.53c2.53,11.19,8.04,21.25,15.66,29.3-5.26-2.96-9.74-6.87-13.57-11.49-8.15-9.85-12.04-21.23-11.95-34.01.05-5.8.01-11.6.01-17.4q0-3.08-3-3.08H3.75c-.59,0-1.2-.03-1.79,0h-.23s-.03.01-.05.01c-.14,0-.28-.01-.4-.03-.49-.06-.83-.26-1.03-.62-.06-.09-.1-.19-.14-.3t0,0c-.07-.22-.1-.47-.1-.77h0C.02,17.97.02,9.83.01,1.68c0-.16.01-.31.03-.45.01-.1.03-.19.06-.27.03-.1.06-.2.1-.28h.01C.38.31.7.09,1.2.03c.09-.02.19-.03.3-.02h.3C2.39.04,3,.01,3.59.01h117.38c-12.73,10.55-20.84,26.48-20.84,44.3,0,1.04.03,2.07.08,3.09-.05,1.07-.08,2.14-.08,3.22,0,1.53.06,3.04.16,4.54.12,1.68.31,3.33.56,4.96.22,1.49.5,2.96.83,4.41Z"/>
            <path class="cls-6" d="M125.71.01c-.22.16-.44.32-.66.49-1.11.84-2.21,1.73-3.27,2.65-.04.03-.08.07-.12.1-1.88,1.64-3.66,3.4-5.33,5.25-1.55,1.71-3,3.51-4.35,5.38-.09.12-.17.24-.26.36-.26.36-.51.72-.76,1.08-1.75,2.57-3.31,5.27-4.67,8.09-.43.89-.83,1.79-1.21,2.7-.25.58-.49,1.17-.72,1.76-.25.65-.5,1.31-.73,1.98-1.19,3.4-2.1,6.93-2.69,10.57-.2,1.2-.36,2.41-.48,3.63-.12,1.11-.21,2.23-.26,3.35-.05-1.02-.08-2.05-.08-3.09C100.13,26.49,108.24,10.56,120.97.01h4.74Z"/>
            <path class="cls-11" d="M129.25,134.89h-.44c-2.67-.01-5.28-.18-7.85-.52-.09-.01-.19-.02-.28-.03-.25-.03-.5-.07-.75-.11-.71-.1-1.41-.21-2.1-.34-.47-.08-.94-.17-1.41-.27-.48-.1-.96-.2-1.43-.31-.45-.1-.9-.21-1.35-.32-1.38-.35-2.74-.74-4.08-1.18-.54-.17-1.07-.35-1.59-.54-3.31-1.17-6.49-2.62-9.51-4.31-15.36-8.56-26.76-23.39-30.74-41.02-.33-1.46-.61-2.93-.83-4.42-.25-1.63-.43-3.28-.56-4.96-.1-1.5-.16-3.01-.16-4.54,0-2.22.12-4.41.35-6.57.12-1.22.28-2.43.48-3.63.59-3.64,1.5-7.17,2.69-10.57.23-.67.48-1.33.73-1.98.23-.59.47-1.18.72-1.76-.32-.03-.7-.03-1.15-.03-13.12-.01-26.24-.01-39.36-.01-.56.72-1.11,1.45-1.65,2.19-.09.12-.17.24-.25.36-.26.36-.51.72-.76,1.08-1.75,2.57-3.31,5.27-4.67,8.09-.42.89-.83,1.79-1.21,2.7-.25.58-.49,1.17-.72,1.76-.25.65-.5,1.32-.73,1.98-1.19,3.4-2.1,6.93-2.69,10.57-.19,1.21-.36,2.41-.48,3.64-.23,2.16-.34,4.35-.34,6.57,0,.77,0,1.53.04,2.28.02.51.04,1.01.07,1.51.02.25.03.5.05.75.02.29.04.58.07.85,0-.1-.02-.19-.03-.28-.09.91-.16,1.83-.2,2.75,1.47,27.89,22.82,50.51,50.14,53.95h9.28c.64,0,1.35.21,2.14-.48-.76-.58-1.38-1.07-2.03-1.52-9.8-6.63-18.13-14.82-25.34-24.17-.94-1.2-1.93-1.7-3.43-1.68-5.98.06-11.97-.01-17.96.05-1.56.01-2.21-.45-2.2-2.1.04-13.65.04-27.29,0-40.93-.01-1.64.58-2.14,2.17-2.12,5.36.08,10.74.1,16.11-.01,1.76-.03,2.41.65,2.92,2.28,6.34,20.28,17.53,37.33,34.42,50.38,8.03,6.2,16.56,10.96,25.57,14.32,10.76,4,22.2,5.99,34.3,5.99h20.93c2.43,0,2.51-.07,2.51-2.48v-23.36c-10.44,7.81-23.38,12.45-37.41,12.5ZM67.57,148.04c-.3-.06-.61-.11-.91-.18-.27-.05-.55-.13-.82-.19.27.06.54.14.82.19.3.07.61.12.91.18ZM63.33,147.04c-.29-.08-.57-.16-.86-.23,0,0,0,0,0,0,0,0,0,0,0,0,.29.08.57.16.86.23ZM49.41,141.35c.76.42,1.52.83,2.3,1.22-.77-.39-1.54-.8-2.3-1.22-4.21-2.35-8.12-5.17-11.66-8.38,3.54,3.22,7.45,6.04,11.66,8.38Z"/>
            <path class="cls-10" d="M69.88.01c-9.07,3.89-17.33,9.12-24.49,15.41-.72.63-1.42,1.27-2.12,1.92-.69.66-1.37,1.32-2.04,1.99-2.69,2.68-5.18,5.52-7.47,8.51h0s-30.01.01-30.01.01c-.59,0-1.2-.03-1.79,0-.1.01-.19.01-.28.01-.57-.01-.98-.14-1.26-.42-.14-.14-.24-.32-.32-.53t0,0c-.06-.22-.1-.47-.1-.77h0C.02,17.97.02,9.83.01,1.68c0-.16.01-.31.03-.45.01-.1.03-.19.06-.27.03-.1.07-.2.11-.28H.21c.05-.09.1-.17.17-.24C.64.16,1.05.01,1.63.01h.17C2.39.04,3,.01,3.59.01h66.29Z"/>
            <path class="cls-2" d="M69.88,0s0,.01-.02.01c-9.06,3.89-17.32,9.11-24.47,15.41-.72.63-1.42,1.27-2.12,1.92-.69.65-1.38,1.32-2.04,1.99-2.69,2.68-5.18,5.52-7.47,8.51H3.75c-.59,0-1.2-.03-1.79,0-.05,0-.1,0-.15.01h-.08c-.59,0-1.02-.13-1.31-.41-.14-.14-.24-.32-.32-.53t0,0c-.06-.22-.1-.47-.1-.77h0C.02,17.97.02,9.83.01,1.68c0-.16.01-.31.03-.45.01-.1.03-.19.06-.27.03-.1.06-.2.1-.28h.01c.05-.09.1-.17.17-.24.08-.08.17-.15.28-.21.06-.03.12-.06.18-.09.05-.02.11-.04.16-.05.07-.02.12-.05.2-.06.09-.02.19-.03.3-.02.09-.02.19-.01.3-.01C2.39.03,3,0,3.59,0h66.29Z"/>
            <path class="cls-7" d="M51.27,0l-.36.02s-.01.01-.02.01c-11.11,7.01-20.66,16.54-28.01,27.82h-2.31C28.46,16.21,38.79,6.64,50.73.02t.02-.01h.52Z"/>
            <path class="cls-9" d="M100.13,44.32c0,1.04.03,2.07.08,3.09-.05,1.07-.08,2.14-.08,3.22,0,1.53.06,3.04.16,4.54.12,1.68.31,3.33.56,4.96.22,1.49.5,2.96.83,4.41.82,3.6,1.94,7.08,3.34,10.42,2.95,7.03,7.15,13.42,12.32,18.88-5.26-2.96-9.74-6.87-13.57-11.49-8.15-9.85-12.04-21.23-11.95-34.01.05-5.8.01-11.6.01-17.4q0-3.08-3-3.08H22.88C30.23,16.58,39.78,7.05,50.89.04t.02-.01l.36-.02h18.61s-.01.01-.02.01h51.11c-.6.5-1.19,1.01-1.77,1.54-11.71,10.52-19.07,25.78-19.07,42.76Z"/>
            <path class="cls-3" d="M31.9,148.24h-3.55C13.22,131.45,3.88,108.44,3.88,83.08c0-.64.01-1.28.02-1.92.05,2.08.16,4.18.34,6.3,2.03,24.14,12.37,45.44,27.66,60.78Z"/>
          </g>
          <text class="cls-13" transform="translate(219.92 114.7)"><tspan x="0" y="0">JobNet</tspan></text>
        </g>
      </g>
    </g>
  </g>
</svg>